<svg id="Layer_1" xmlns="http://www.w3.org/2000/svg" viewBox="0 0 104.6 47.8"><style>.st0{fill:#85a0ab}</style><title>illo-falls</title><path class="st0" d="M95.9 46.9c.2-1.5-.1-3.1-1-4.3-.4-.7-1.1-1.2-1.9-1.4h.1c2.2-1.3 5-2.4 7.1.7l.6-.4c-1.8-2.8-4.5-3.1-8.1-1-.4.2-.8.5-1.2.6-.5.1-1 .3-1.5.6-1.9.7-3.2.6-4.8.5-.7 0-1.4-.1-2.2 0-2.6.1-3.4 2.8-3.5 4.6h-1.7l1-.8-2.9-.9 3.6-2.3L77 42l2.9-2.7-2.2-.5 3-2.9-2.5-.2 3.6-3.2-2.8-.6 9.8-14.6-.6-.4-10.3 15.4 2.4.6-3.9 3.4 2.6.2-2.8 2.7 2.2.5-2.8 2.6 2.3.8-3.7 2.4 3.1 1-.6.5H62.5c0-.6 0-1.9.1-3.5h-.7c-.1 1.6-.1 2.9-.1 3.5h-2.2c-.1-2.7-.3-17.7 4.8-23.6l-.5-.5c-5.3 6.1-5.1 21.2-5 24.1H49c0-24.7 6.4-26.7 6.5-26.7l-.1-.4-.1-.4c-.3.1-7 1.9-7 27.4h-4.6c-1.4-3.7-4.9-4-6.2-3.9 0-.8 0-1.5.1-2.3H46l-3.1-3.5 2.5-.3-2.7-3.1 2.5-1.2-3.9-4 2.8-.9-3-3H43l-2.3-3.9 2.2-.3-3.6-3.1 3.1-1.2-4.2-2.3 2.3-1.4-4.1-3L39.6 5l3.9 3.3-2 .3 2.6 2.3h-2.8l2.8 2.3.5-.6-1.2-1h2.7L43.2 9l2-.3-5.7-4.9L36 9l-1.5-1.1-4.3 4.5 2 .8-3.2 4.3 2.3.4-3.3 3.4 2.2.5-4.2 3.8 2.8-.1-2.7 3.4 2.7.1-3.8 4.7 2.3-.3-1.9 4.1 2 .1-2.2 3.1h8.7c-.1 1.6-.4 4.8-1.2 6.2H0v.9h104.6v-.9h-8.7zM83.2 43h2.1c1.9.1 3.7.2 6.5-1.2 1-.2 2 .2 2.5 1.1.8 1.1 1.1 2.6.9 3.9H80.3c.1-1 .6-3.7 2.9-3.8zm-40.4 3.9h-4.4c-.5-1-.9-2.1-1-3.2 1.1 0 4.1.1 5.4 3.2zM29.2 36.7l-2.3-.1 2-4.3-1.7.2 3.5-4.4L28 28l2.8-3.5-2.3.1 3.7-3.4-2.3-.5 3.4-3.5-2.6-.4 3.1-4-1.9-.8 2.8-3 4.4 3.3-2.5 1.5 3.9 2.1-2.7 1 3.2 2.8-1.6.3 2.1 3.7H39l3.5 3.5-2.8.9 4 4.2-2.5 1.1 2.4 2.8-2.5.3 2.9 3.3H27l2.2-3.1zm4.6 10.2c.8-1.9 1-5 1.1-6.2h1.6c-.3 2.1 0 4.3.9 6.2h-3.6z"/><path class="st0" d="M16.1 44.8c.1-5-.9-7-1.8-7.8-.3-.3-.8-.5-1.2-.5l.1.7c.3 0 .5.2.7.3.6.6 1.6 2.3 1.5 7.2l.7.1z"/><path class="st0" d="M14.4 32.9c3.3 3.3 3.1 11.8 3.1 11.9h.7c0-.4.1-9-3.4-12.5-.9-.9-2.2-1.5-3.5-1.4v.7c1.2 0 2.3.5 3.1 1.3z"/><path class="st0" d="M20.7 44.8C21.3 27 13.5 26 13.1 26l-.1.7c.1 0 7.5 1 6.9 18.1h.8z"/><path class="st0" d="M23.6 44.9c0-.1 1.1-14.9-7.6-23l-.5.5c8.5 7.9 7.4 22.2 7.4 22.4l.7.1zM25.9 31.3c-.7-7.3-5.2-9.4-5.4-9.5l-.3.7c.9.5 1.6 1.1 2.2 1.8 1 1.2 2.4 3.5 2.7 7h.8z"/><path transform="matrix(.9996 -.02733 .02733 .9996 -.393 .58)" class="st0" d="M12.3 14.3h17.5v.7H12.3z"/><path transform="matrix(1 -.0093 .0093 1 -.126 .566)" class="st0" d="M41.4 13.5h38.9v.7H41.4z"/><path class="st0" d="M50.1 17.6l-.1-.4c-.2.1-5.4 1.5-5.8 13h.7c.4-10.9 5.2-12.3 5.3-12.3l-.1-.3z"/><path class="st0" d="M51.6 19.4c1.9-1.6 3.5-1.5 3.6-1.5v-.8c-.1 0-2-.2-4.1 1.6-4.1 3.6-5 11.8-5.1 18h.7c.2-10.8 2.8-15.4 4.9-17.3zM46.1 38.8h.7v2.9h-.7zM60.8 17.9l-.1-.4-.1-.4c-.4.1-9.6 2.2-9.6 28.8h.7c.1-25.8 9-28 9.1-28z"/><path class="st0" d="M60.4 21l-.1-.3-.1-.3c-.2.1-5.6 1.9-6.4 21.3h.7c.8-18.8 5.8-20.6 5.9-20.7zM53.7 43.4h.7v2.2h-.7zM56.4 44h.7v2.1h-.7z"/><path class="st0" d="M66.4 19l-.2-.7c-4.1 1.1-7 5.4-8.6 13-.7 3.6-1.1 7.2-1.2 10.9h.7c0-.2.1-20.8 9.3-23.2zM73.4 17l-.3-.7c-8.3 3.9-10.5 17.1-11 24.7l.7.1c.5-7.4 2.6-20.4 10.6-24.1z"/><path class="st0" d="M78.5 17.5l-.1-.7c-7 1-10.4 8.8-12 15.3l.7.2c1.6-6.3 4.8-13.9 11.4-14.8zM66.6 34.1l-.7-.1c-.5 2.3-.8 4.6-1 6.9h.7c.2-2.3.5-4.6 1-6.8z"/><path class="st0" d="M68 45.5c0-.2 0-18.9 9.4-24.5l-.4-.6c-4.1 2.4-7 7.5-8.6 14.8-.7 3.4-1.1 6.9-1.2 10.3h.8z"/><path class="st0" d="M71.5 34.1h.7c.2-1.7.7-3.4 1.5-4.9 1.3-2.5 3.9-5.9 9.1-8.3l-.3-.7C72 25 71.5 34 71.5 34.1zM25.1 9.3l2.4 2.5.5-.5-2.9-3-5 5.1.5.5zM33.1 4.9l3.1 2.6.5-.5L33 3.9l-4.5 6 .5.4zM47.3 2.6l3.3 3.9h-2.4l2.3 1.9h-2.1l2 2.5h-2.7l3 2.3.4-.6-1.3-1h2.1l-2-2.4h2.5l-2.3-2h2.1l-4.9-5.8-3.6 4.7.6.5zM53.5 1.1l2.7 2.6.5-.5L53.4 0l-2.8 3.8.6.4zM56.4 7.5l-1.8 1.7h1.9l-1.6 2.1 1.5.2-1.1 1.2.5.5 2.1-2.2-1.7-.2 1.7-2.4h-1.5L57.9 7l-1.8-.3 3.1-4.5 3 4.4-2.5-.1 2.2 1.9h-1.7l1.9 2.1-2.4.1 3 2.3.4-.6-1.4-1.1 2-.1-1.8-1.9h2l-2.2-1.9h1.9L59.2.9l-4.3 6.3zM67.3 4.5L71 7.7 69 8l2.6 2.3h-2l2 2.3.5-.5-1-1.1h2.5l-2.9-2.5 2-.3-5.5-4.7-3.4 4.2.6.5z"/><path class="st0" d="M73.2 9.4L74.4 8l4.5 4.4.5-.5-5-5-1.8 2zM86.4 40.8h.7c0-.2.1-15.6 6-19.9l-.4-.6c-2.6 1.9-4.5 5.9-5.5 12-.5 2.9-.8 5.7-.8 8.5zM89.7 38.4h.7c0-.1-.1-7 3.5-8.6l-.3-.7c-4 1.8-3.9 9-3.9 9.3zM92.5 38.2l.7-.1c0-.2-.3-3.7 3.3-4.6l-.2-.7c-4.1 1-3.8 5.3-3.8 5.4z"/></svg>