<svg xmlns="http://www.w3.org/2000/svg" viewBox="0 0 115.7265 72.80005"><defs><style>.a{fill:#3b3b3b}</style></defs><title>footer-logo</title><path class="a" d="M0 72.286c4.32.134 3.563.015 3.57-3.425.026-12.553.004-25.107.015-37.66.002-2.534-.108-2.506-2.383-2.435a1.08 1.08 0 0 1-.837-.324h21.62v5.517c-.21-.148-.51-.247-.536-.393-.567-3.26-2.732-4.574-5.792-4.71-1.876-.083-3.76-.015-5.75-.015v9.87c1.867-.087 3.73-.07 5.567-.287 1.72-.203 2.293-1.57 2.605-3.084.046-.22.31-.396.473-.592.14.214.4.427.4.642.03 2.733.02 5.465.02 8.198l-.344.146a3.936 3.936 0 0 1-.555-.987c-.6-2.695-1.49-3.44-4.22-3.448-1.282-.005-2.563-.002-4.06-.002v1.71l.002 29.05c0 2.065.18 2.238 2.277 2.258.393.004.787.045 1.18.07l-.015.414H0zM2.88 2.1c-.025.4-.074.796-.074 1.194q.016 8.034.046 16.07c.008 1.96.18 2.144 2.1 2.56H.507c.502-.294 1.215-.487 1.514-.948a3.62 3.62 0 0 0 .31-1.85c.033-5.53.038-11.057.048-16.585C2.382.62 2.378.62.636.286c1.82 0 3.645-.056 5.46.042a1.833 1.833 0 0 1 1.217.884c2.054 3.693 4.047 7.418 6.06 11.133a2.415 2.415 0 0 0 .802.95v-2.6c0-2.613.008-5.227-.003-7.84C14.165 1.06 13.875.7 12.166.316h4.52c-1.662.394-1.99.834-2 2.678q-.043 8.87-.062 17.74a3.384 3.384 0 0 1-.198 1.36C11.136 15.097 7.696 8.254 2.88 2.1zM55.307 0c.685.2 1.39.35 2.05.61a4.447 4.447 0 0 1 3.05 3.685c-.164-.31-.32-.625-.49-.93a5.43 5.43 0 0 0-9.277-.247 13.052 13.052 0 0 0-1.698 7.007 18.812 18.812 0 0 0 1.398 8.144 4.934 4.934 0 0 0 3.527 3.24c1.283.252 1.912-.202 1.923-1.505.03-3.428-.037-6.858.033-10.285.03-1.542-1.042-1.237-1.905-1.44h6.334a4.553 4.553 0 0 0-.57 1.487c-.053 3.556-.028 7.114-.028 10.67v1.578c-3.456.017-6.877.453-10.06-1.236a8.334 8.334 0 0 1-3.974-4.693 15.408 15.408 0 0 1-.534-9.056A9.017 9.017 0 0 1 53.083.28 8.453 8.453 0 0 0 54.278 0zM112.292 36.902a3.534 3.534 0 0 1-.557-.8 31.51 31.51 0 0 0-1.585-4.703c-1.374-2.578-4.013-3.437-7.025-2.614a6.03 6.03 0 0 0-4.29 5.574 7.542 7.542 0 0 0 4.068 7.594c2.02 1.167 4.18 2.088 6.224 3.218 4.392 2.427 6.354 6.307 6.573 11.21.19 4.23-.603 8.145-3.436 11.46a13.102 13.102 0 0 1-8.655 4.587 31.322 31.322 0 0 1-10.455-.757 1.13 1.13 0 0 1-.71-.795c-.05-3.008-.032-6.016-.032-8.987.873-.332 1.084-.054 1.19.732a12.39 12.39 0 0 0 2.415 6.226 7.33 7.33 0 0 0 7.6 2.67c2.71-.51 4.22-2.43 5.028-4.912a15.516 15.516 0 0 0 .488-8.03c-.756-3.676-3.362-5.697-6.51-7.276a34.18 34.18 0 0 1-5.415-3.1c-3.6-2.732-4.4-6.574-3.854-10.87a10.38 10.38 0 0 1 7.63-9.11c3.74-1.133 7.44-.5 11.14.168.224.04.52.52.523.8.04 2.468.023 4.937.023 7.405zM89.77 7.89c.756.23 1.16.345 1.557.474a4.52 4.52 0 0 1 3.566 4.575c.135 2.218.193 4.442.314 6.662.047.866-.37 2.005 1.176 2.077 2.057.095 2.983-.42 3.213-1.92.193-1.266.312-2.544.527-3.805.67-3.92 1.362-7.842 3.417-11.337a11.89 11.89 0 0 1 1.858-2.443A6.007 6.007 0 0 1 110.126.27c1.15.072 2.306.014 3.46.05-1.75.32-1.75.32-1.75 2.252v16.85c0 2.08.002 2.08 1.914 2.486h-7.83c1.89-.524 1.892-.524 1.892-2.525 0-3.26-.03-6.517.018-9.775.013-.91-.287-1.21-1.18-1.16-1.153.063-2.32-.05-3.467.052a1.42 1.42 0 0 0-1.054.773c-.663 3.215-1.334 6.434-1.792 9.682-.285 2.023.13 2.38 2.13 2.98H91.105c0-2.83.003-5.72-.003-8.613a9.493 9.493 0 0 0-.073-1.795C90.53 9 89.337 7.66 85.88 8.322v10.99c0 2.132 0 2.132 1.906 2.632H79.97c.007-.04.01-.176.034-.18 1.863-.307 1.863-.306 1.863-2.255V2.4c0-1.823 0-1.823-1.704-1.892 3.55 0 7.11-.163 10.644.065a2.715 2.715 0 0 1 2.8 2.925c.085 2.134-.647 3.265-2.543 3.927-.32.112-.638.228-1.295.463zm12.895.074h5.03V1.29c-2.088.486-4.846 4.193-5.03 6.674zM85.968.604v7.04c2.462.302 3.547-.616 3.592-2.957.006-.342.002-.683 0-1.025-.01-2.524-.968-3.37-3.592-3.057zM18.902.315H26.4C25.824.49 25.11.5 24.84.85c-.28.363-.165 1.058-.166 1.61-.008 5.784-.02 11.57.015 17.356.003.666-.45 1.645.773 1.85 1.72.286 3.097-.17 3.375-1.33.375-1.568.52-3.19.786-4.786.58-3.503 1.232-7.003 2.94-10.16a16.448 16.448 0 0 1 2.583-3.48C36.654.335 38.667.13 40.74.276c.68.048 1.367.008 2.17.11-2.017-.29-1.786 1.016-1.783 2.207q.018 8.292.005 16.585c0 2.298 0 2.298 2.137 2.73h-7.815c.01-.038.018-.165.046-.17 1.78-.287 1.78-.286 1.78-2.16 0-3.3-.03-6.6.02-9.898.012-.96-.297-1.298-1.257-1.234-1.11.073-2.228.04-3.34.008-.64-.018-1.05.12-1.175.846-.556 3.228-1.288 6.434-1.678 9.68-.267 2.22-.06 2.245 2.26 2.973H18.735l-.022-.18a3.676 3.676 0 0 1 .786-.092c.94.09 1.157-.392 1.154-1.235-.02-6.257-.042-12.514.012-18.77.012-1.4-.868-1.196-1.764-1.36zM37.208 8.07V1.345c-2.03.235-4.785 3.806-5.183 6.726h5.183zM78.048.284c-1.71.27-1.71.27-1.71 2.02v16.713c0 2.304 0 2.304 2.3 2.94h-8.21c.73-.315 1.463-.406 1.724-.805a3.53 3.53 0 0 0 .155-1.748c.01-3.257-.02-6.514.02-9.77.012-.874-.222-1.274-1.15-1.183-.637.063-1.284.012-1.927.012-2.51 0-2.596-.017-3.08 2.384-.547 2.715-1.028 5.452-1.334 8.203-.228 2.046.142 2.35 2.12 2.87h-5.09c1.762-.273 2.094-1.502 2.374-3.014.708-3.81 1.428-7.632 2.485-11.352a16.137 16.137 0 0 1 2.743-4.866 5.697 5.697 0 0 1 4.99-2.412c1.196.045 2.394.008 3.59.008zM72.256 1.37c-1.934.1-4.88 3.91-5.1 6.603h5.1zM39.284 29.376c-.003-.948.408-1.193 1.243-1.146.674.037 1.35.007 2.027.007l-.018-.476c-1.946 0-3.894.058-5.837-.01-4.175-.15-7.313 1.734-9.805 4.896a23.898 23.898 0 0 0-4.95 12.717c-.613 6.203-1.083 12.42-1.618 18.632a400.43 400.43 0 0 1-.475 5.228 2.81 2.81 0 0 1-2.72 2.866 10.752 10.752 0 0 0-1.11.307l.07.198h8.49a2.843 2.843 0 0 0-1.223-.457c-1.874-.355-2.29-.837-2.3-2.736-.005-.942-.007-1.89.07-2.827.48-5.96.92-11.922 1.503-17.872.274-2.796.804-5.568 1.29-8.338.068-.39.536-1.007.834-1.016 2.648-.08 5.3-.047 8.15-.047 0 .63-.002 1.05 0 1.472.015 5.114-.03 23.625.07 29.538h-.054a2.5 2.5 0 0 1-1.93 2.282h10.43s-2.14-.572-2.136-2.282c.023-8.74.023-32.828-.003-40.937zm-6.408 8.214c-.014.35-.477.97-.747.977-2.475.076-4.95.045-7.43.045.107-3.204 5.03-8.947 8.213-9.46v2.918c0 1.84.04 3.682-.037 5.52zM67.576 64.997s.1 6.014-10.032 6.174c0 0-3.087-.033-3.087-2.374V43.71h.05c-.005-4.734.005-9.468-.002-14.203-.002-.853.347-1.28 1.224-1.253.678.02 1.358.004 2.038.004l.002-.28H44.902a2.182 2.182 0 0 0 1.155.275c2.086.022 2.088.02 2.088 2.085v38.176s-.462 4.048-2.09 4.082h22.11v-7.598zM90.3 64.88s.1 6.013-10.033 6.172c0 0-3.087-.033-3.087-2.375V43.593h.05c-.004-4.735.005-9.47-.002-14.205-.002-.852.347-1.28 1.224-1.253.68.02 1.36.004 2.04.004l.002-.28H67.626a2.182 2.182 0 0 0 1.154.275c2.086.022 2.088.018 2.088 2.084v38.173s-.462 4.05-2.09 4.083h22.11V64.88z"/></svg>